HIERARCHY
ROOT pelvis
{
	OFFSET 0.00 0.00 0.00
	CHANNELS 6 Xposition Yposition Zposition Xrotation Yrotation Zrotation
	JOINT lfemur
	{
		OFFSET 0.00000 3.26371 0.00000
		CHANNELS 3 Xrotation Yrotation Zrotation
		JOINT ltibia
		{
			OFFSET 0.00000 0.00000 -17.39272
			CHANNELS 3 Xrotation Yrotation Zrotation
			JOINT lfoot
			{
				OFFSET 0.00000 0.00000 -17.72520
				CHANNELS 3 Xrotation Yrotation Zrotation
				JOINT ltoes
				{
					OFFSET 4.21806 0.00000 0.00000
					CHANNELS 3 Xrotation Yrotation Zrotation
				}
			}
		}
	}
	JOINT rfemur
	{
		OFFSET 0.00000 -3.26371 0.00000
		CHANNELS 3 Xrotation Yrotation Zrotation
		JOINT rtibia
		{
			OFFSET 0.00000 0.00000 -17.39272
			CHANNELS 3 Xrotation Yrotation Zrotation
			JOINT rfoot
			{
				OFFSET 0.00000 0.00000 -17.72520
				CHANNELS 3 Xrotation Yrotation Zrotation
				JOINT rtoes
				{
					OFFSET 4.21806 0.00000 0.00000
					CHANNELS 3 Xrotation Yrotation Zrotation
				}
			}
		}
	}
	JOINT thorax
	{
		OFFSET -1.96850 0.00000 6.16593
		CHANNELS 6 Xposition Yposition Zposition Xrotation Yrotation Zrotation
		JOINT head
		{
			OFFSET 0.00000 0.00000 18.21355
			CHANNELS 6 Xposition Yposition Zposition Xrotation Yrotation Zrotation
		}
		JOINT lclavicle
		{
			OFFSET 0.00000 0.00000 15.13875
			CHANNELS 3 Xrotation Yrotation Zrotation
			JOINT lhumerus
			{
				OFFSET 0.00000 7.18963 -1.52650
				CHANNELS 3 Xrotation Yrotation Zrotation
				JOINT lradius
				{
					OFFSET 0.00000 0.00000 -10.12096
					CHANNELS 3 Xrotation Yrotation Zrotation
					JOINT lhand
					{
						OFFSET 0.00000 0.00000 -10.45726
						CHANNELS 3 Xrotation Yrotation Zrotation
					}
				}
			}
		}
		JOINT rclavicle
		{
			OFFSET 0.00000 0.00000 15.13875
			CHANNELS 3 Xrotation Yrotation Zrotation
			JOINT rhumerus
			{
				OFFSET 0.00000 -7.18963 -1.52650
				CHANNELS 3 Xrotation Yrotation Zrotation
				JOINT rradius
				{
					OFFSET 0.00000 0.00000 -10.12096
					CHANNELS 3 Xrotation Yrotation Zrotation
					JOINT rhand
					{
						OFFSET 0.00000 0.00000 -10.45726
						CHANNELS 3 Xrotation Yrotation Zrotation
					}
				}
			}
		}
	}
}
MOTION
Frames: 11
Frame Time: 0.008333
 -76.3965 -7.1900 29.8087 -1.1613 0.8948 -23.9669 40.3717 -40.0749 51.5562 -0.0000 73.9870 0.0000 0.0000 -2.1403 -5.9979 0.0000 -24.1187 -0.0000 -16.3906 22.4769 -1.1190 -0.0000 22.5435 0.0000 -0.0000 -5.9771 -21.1889 0.0000 -41.1909 -0.0000 -78.7848 -5.3515 35.9798 0.2135 1.7364 5.4064 -78.3074 -6.0884 54.8454 0.3410 11.1120 12.4131 -17.4864 0.0000 -5.2958 41.0690 -10.5513 3.9732 180.0000 -89.0894 165.4494 6.8837 0.0788 -0.0000 12.0668 -0.0000 -5.6628 -42.9103 -1.8581 15.9859 -180.0000 -81.2507 -145.8663 2.1880 -4.1484 -0.0000
 -76.3965 -7.1900 29.8087 -1.1613 0.8948 -23.9669 40.3717 -40.0749 51.5562 -0.0000 73.9870 0.0000 0.0000 -2.1403 -5.9979 0.0000 -24.1187 -0.0000 -16.3906 22.4769 -1.1190 -0.0000 22.5435 0.0000 -0.0000 -5.9771 -21.1889 0.0000 -41.1909 -0.0000 -78.7848 -5.3515 35.9798 0.2135 1.7364 5.4064 -78.3074 -6.0884 54.8454 0.3410 11.1120 12.4131 -17.4864 0.0000 -5.2958 41.0690 -10.5513 3.9732 180.0000 -89.0894 165.4494 6.8837 0.0788 -0.0000 12.0668 -0.0000 -5.6628 -42.9103 -1.8581 15.9859 -180.0000 -81.2507 -145.8663 2.1880 -4.1484 -0.0000
 -76.3924 -7.1933 29.8060 -1.1589 0.8785 -23.9672 40.3315 -40.0864 51.4939 -0.0000 74.0008 0.0000 0.0000 -2.1917 -5.9274 0.0000 -24.0940 -0.0000 -16.3840 22.4621 -1.0647 -0.0000 22.5952 0.0000 0.0000 -5.8139 -21.3512 0.0000 -41.5710 -0.0000 -78.7778 -5.3539 35.9768 0.2186 1.7396 5.4046 -78.3097 -6.0862 54.8448 0.3229 11.1315 12.3059 -17.4665 0.0000 -5.3154 41.0578 -10.5752 3.9539 180.0000 -89.1539 165.4585 6.9630 0.0432 0.0000 12.0813 -0.0000 -5.6711 -42.9413 -1.8513 15.9898 -180.0000 -81.2315 -145.9732 2.1519 -4.1521 -0.0000
 -76.3924 -7.1933 29.8060 -1.1589 0.8785 -23.9672 40.3315 -40.0864 51.4939 -0.0000 74.0008 0.0000 0.0000 -2.1917 -5.9274 0.0000 -24.0940 -0.0000 -16.3840 22.4621 -1.0647 -0.0000 22.5952 0.0000 0.0000 -5.8139 -21.3512 0.0000 -41.5710 -0.0000 -78.7778 -5.3539 35.9768 0.2186 1.7396 5.4046 -78.3097 -6.0862 54.8448 0.3229 11.1315 12.3059 -17.4665 0.0000 -5.3154 41.0578 -10.5752 3.9539 180.0000 -89.1539 165.4585 6.9630 0.0432 0.0000 12.0813 -0.0000 -5.6711 -42.9413 -1.8513 15.9898 -180.0000 -81.2315 -145.9732 2.1519 -4.1521 -0.0000
 -76.3900 -7.1973 29.8034 -1.1551 0.8728 -23.9703 40.3061 -40.1040 51.4371 -0.0000 74.0099 0.0000 0.0000 -2.1808 -5.8814 0.0000 -24.1315 -0.0000 -16.3838 22.4672 -1.0507 -0.0000 22.6109 0.0000 0.0000 -5.8576 -21.3890 0.0000 -41.4600 -0.0000 -78.7692 -5.3579 35.9737 0.2196 1.7546 5.4089 -78.2932 -6.0999 54.8371 0.3053 11.0498 12.3163 -17.4495 0.0000 -5.3202 41.0508 -10.5811 3.9433 180.0000 -89.1365 165.5564 7.0041 -0.0094 0.0000 12.0906 -0.0000 -5.6879 -42.9415 -1.8453 15.9324 180.0000 -81.2399 -146.0665 2.2183 -4.4977 0.0000
 -76.3895 -7.1994 29.8024 -1.1551 0.8642 -23.9722 40.2971 -40.0972 51.4175 -0.0000 74.0132 0.0000 0.0000 -2.1787 -5.8785 0.0000 -24.1508 -0.0000 -16.3808 22.4688 -1.0442 -0.0000 22.6190 0.0000 -0.0000 -5.9143 -21.3922 -0.0000 -41.3906 -0.0000 -78.7688 -5.3584 35.9730 0.2141 1.7494 5.4003 -78.3008 -6.0899 54.8386 0.3322 11.1108 12.2584 -17.4405 0.0000 -5.3365 41.0440 -10.5967 3.9521 180.0000 -89.1807 165.5603 7.0653 0.0196 0.0000 12.0960 -0.0000 -5.6816 -42.9551 -1.8445 15.9799 180.0000 -81.2453 -146.0809 2.1583 -4.1451 0.0000
 -76.3865 -7.2008 29.8010 -1.1544 0.8602 -23.9706 40.2859 -40.0985 51.3952 -0.0000 74.0194 0.0000 0.0000 -2.1915 -5.8665 0.0000 -24.1752 -0.0000 -16.3830 22.4732 -1.0254 -0.0000 22.6346 0.0000 0.0000 -5.8983 -21.3974 -0.0000 -41.4263 -0.0000 -78.7637 -5.3596 35.9712 0.2109 1.7523 5.3944 -78.2977 -6.0917 54.8367 0.3638 11.1219 12.3036 -17.4352 0.0000 -5.3379 41.0347 -10.6009 3.9571 180.0000 -89.1688 165.5823 7.0589 -0.0070 0.0000 12.1024 -0.0000 -5.6916 -42.9532 -1.8368 15.9607 180.0000 -81.2499 -146.0952 2.1266 -4.1923 0.0000
 -76.3865 -7.2008 29.8010 -1.1544 0.8602 -23.9706 40.2859 -40.0985 51.3952 -0.0000 74.0194 0.0000 0.0000 -2.1915 -5.8665 0.0000 -24.1752 -0.0000 -16.3830 22.4732 -1.0254 -0.0000 22.6346 0.0000 0.0000 -5.8983 -21.3974 -0.0000 -41.4263 -0.0000 -78.7637 -5.3596 35.9712 0.2109 1.7523 5.3944 -78.2977 -6.0917 54.8367 0.3638 11.1219 12.3036 -17.4352 0.0000 -5.3379 41.0347 -10.6009 3.9571 180.0000 -89.1688 165.5823 7.0589 -0.0070 0.0000 12.1024 -0.0000 -5.6916 -42.9532 -1.8368 15.9607 180.0000 -81.2499 -146.0952 2.1266 -4.1923 0.0000
 -76.3817 -7.2045 29.7987 -1.1521 0.8576 -23.9734 40.2681 -40.1092 51.3506 -0.0000 74.0333 0.0000 0.0000 -2.2038 -5.8046 0.0000 -24.2183 -0.0000 -16.3827 22.4801 -1.0131 -0.0000 22.6396 0.0000 0.0000 -5.9064 -21.4247 -0.0000 -41.3844 -0.0000 -78.7572 -5.3638 35.9682 0.2073 1.7524 5.3811 -78.2904 -6.0930 54.8344 0.3716 11.1286 12.2500 -17.4246 0.0000 -5.3530 41.0574 -10.6236 3.9710 180.0000 -89.1796 165.5620 7.0824 0.0074 0.0000 12.1056 -0.0000 -5.6940 -42.9540 -1.8338 15.9518 -180.0000 -81.2576 -146.0461 2.2520 -4.1929 0.0000
 -76.3763 -7.2088 29.7977 -1.1461 0.8505 -23.9665 40.2802 -40.0902 51.3827 -0.0000 74.0444 0.0000 -0.0000 -2.1886 -5.8721 0.0000 -24.2160 -0.0000 -16.3834 22.5101 -0.9984 -0.0000 22.6253 0.0000 0.0000 -5.9091 -21.4421 -0.0000 -41.3466 -0.0000 -78.7528 -5.3680 35.9689 0.1930 1.7508 5.3713 -78.2867 -6.0933 54.8348 0.3971 11.1340 12.2121 -17.4208 0.0000 -5.3552 41.0615 -10.6312 3.9730 180.0000 -89.1818 165.5586 7.0130 0.0543 0.0000 12.1136 -0.0000 -5.6960 -42.9347 -1.8269 15.9448 180.0000 -81.2973 -145.9828 2.1766 -4.2748 0.0000
 -76.3758 -7.2109 29.7967 -1.1451 0.8501 -23.9721 40.2687 -40.0962 51.3532 -0.0000 74.0461 0.0000 0.0000 -2.2063 -5.8207 0.0000 -24.2411 -0.0000 -16.3867 22.5255 -1.0073 -0.0000 22.5997 0.0000 0.0000 -5.9412 -21.4202 -0.0000 -41.3065 -0.0000 -78.7523 -5.3703 35.9672 0.1882 1.7544 5.3668 -78.2811 -6.0971 54.8330 0.4097 11.1460 12.2617 -17.4169 0.0000 -5.3711 41.0894 -10.6527 3.9902 180.0000 -89.1977 165.4870 7.0406 0.1356 0.0000 12.1099 -0.0000 -5.6925 -42.9362 -1.8383 15.9541 180.0000 -81.3008 -145.9983 2.2474 -4.1645 0.0000
